<?xml version="1.0" standalone="no"?>
<!DOCTYPE svg PUBLIC "-//W3C//DTD SVG 20010904//EN"
 "http://www.w3.org/TR/2001/REC-SVG-20010904/DTD/svg10.dtd">
<svg version="1.0" xmlns="http://www.w3.org/2000/svg"
 width="260.000000pt" height="260.000000pt" viewBox="0 0 260.000000 260.000000"
 preserveAspectRatio="xMidYMid meet">
<metadata>
Created by potrace 1.14, written by Peter Selinger 2001-2017
</metadata>
<g transform="translate(0.000000,260.000000) scale(0.100000,-0.100000)"
fill="#000000" stroke="none">
<path d="M1095 2582 c-104 -45 -169 -97 -221 -178 -43 -67 -80 -175 -83 -246
-1 -9 -14 -21 -30 -26 -16 -6 -55 -27 -86 -47 -151 -96 -263 -251 -324 -448
-31 -100 -36 -148 -35 -307 1 -123 5 -160 27 -244 51 -189 160 -372 303 -506
69 -64 180 -150 194 -150 4 0 -12 30 -36 67 -46 71 -96 187 -114 269 -12 53
-15 147 -7 205 21 139 113 268 223 309 l25 10 -26 -38 c-32 -46 -66 -157 -61
-197 2 -16 4 -34 5 -39 0 -5 14 11 30 35 17 24 41 55 55 68 l25 23 -25 -60
c-24 -60 -33 -147 -19 -190 6 -20 10 -17 33 30 14 29 55 82 91 118 111 109
223 154 636 254 99 23 215 58 258 76 125 52 209 130 239 224 6 17 19 50 30 74
11 23 17 49 14 57 -9 25 -35 29 -57 9 -18 -16 -27 -17 -93 -7 -128 18 -190 57
-358 223 -185 181 -226 209 -375 255 -9 3 -8 16 2 55 17 64 56 130 94 161 16
13 27 27 25 31 -13 20 -172 -11 -264 -53 -45 -20 -46 -22 -44 -62 3 -37 2 -39
-7 -17 -21 51 -18 144 5 214 26 75 22 78 -49 48z m428 -643 c27 -14 106 -96
99 -104 -3 -3 -27 -5 -53 -5 -37 0 -57 7 -99 36 -29 20 -66 41 -84 47 l-31 11
40 12 c51 16 100 17 128 3z"/>
<path d="M1720 997 c-3 -3 -18 -7 -35 -10 -94 -15 -206 -66 -285 -128 -66 -51
-51 -34 -181 -205 -58 -76 -133 -167 -165 -200 -120 -125 -253 -204 -342 -204
-112 1 -210 121 -200 245 2 25 2 45 1 45 -1 0 -10 -14 -19 -32 -22 -43 -29
-129 -14 -186 34 -126 111 -219 230 -276 61 -29 73 -31 185 -33 106 -1 131 2
210 26 83 25 187 71 278 123 38 22 248 185 278 216 9 9 27 26 40 37 13 11 47
39 74 61 175 145 313 185 462 135 32 -11 59 -18 61 -17 7 8 -43 120 -77 172
-99 152 -236 227 -426 233 -39 1 -73 0 -75 -2z m190 -42 c127 -26 265 -141
318 -266 l20 -46 -52 12 c-142 33 -268 -12 -461 -168 -78 -63 -88 -61 -75 20
9 56 30 102 56 124 15 13 15 14 -7 20 -36 8 -125 -15 -167 -45 -20 -14 -38
-24 -40 -21 -10 10 31 116 63 160 19 28 35 53 35 56 0 4 -17 3 -38 -1 -37 -6
-106 -5 -147 4 -11 3 -22 5 -25 5 -11 2 99 74 147 96 51 24 135 50 183 58 34
5 147 0 190 -8z"/>
</g>
</svg>
